<svg xmlns="http://www.w3.org/2000/svg" xmlns:xlink="http://www.w3.org/1999/xlink" width="1024" zoomAndPan="magnify" viewBox="0 0 768 767.999994" height="1024" preserveAspectRatio="xMidYMid meet" version="1.0"><defs><g/></defs><rect x="-76.8" width="921.6" fill="#ffffff" y="-76.799999" height="921.599993" fill-opacity="1"/><rect x="-76.8" width="921.6" fill="#004aad" y="-76.799999" height="921.599993" fill-opacity="1"/><g fill="#ffffff" fill-opacity="1"><g transform="translate(172.812919, 513.280799)"><g><path d="M 267.953125 0 L 267.953125 -23.609375 L 272.296875 -23.609375 C 276.910156 -23.609375 280.988281 -23.894531 284.53125 -24.46875 C 288.070312 -25.050781 290.992188 -26.207031 293.296875 -27.9375 C 295.609375 -29.675781 297.34375 -32.171875 298.5 -35.421875 C 299.65625 -38.671875 300.234375 -42.96875 300.234375 -48.3125 L 300.234375 -272.9375 L 210.765625 0 L 180.65625 0 L 86.859375 -272.9375 L 86.859375 -52.421875 C 86.859375 -46.066406 87.617188 -41.007812 89.140625 -37.25 C 90.660156 -33.5 92.828125 -30.613281 95.640625 -28.59375 C 98.453125 -26.570312 101.878906 -25.234375 105.921875 -24.578125 C 109.972656 -23.929688 114.597656 -23.609375 119.796875 -23.609375 L 122.390625 -23.609375 L 122.390625 0 L 12.34375 0 L 12.34375 -23.609375 L 30.984375 -23.609375 C 34.160156 -23.609375 37.117188 -23.894531 39.859375 -24.46875 C 42.597656 -25.050781 45.015625 -26.242188 47.109375 -28.046875 C 49.203125 -29.859375 50.828125 -32.53125 51.984375 -36.0625 C 53.140625 -39.601562 53.71875 -44.265625 53.71875 -50.046875 L 53.71875 -266.234375 C 53.71875 -272.148438 53.140625 -276.875 51.984375 -280.40625 C 50.828125 -283.945312 49.203125 -286.65625 47.109375 -288.53125 C 45.015625 -290.414062 42.597656 -291.679688 39.859375 -292.328125 C 37.117188 -292.984375 34.160156 -293.3125 30.984375 -293.3125 L 12.34375 -293.3125 L 12.34375 -316.703125 L 140.15625 -316.703125 L 213.8125 -102.46875 L 284.421875 -316.703125 L 409.84375 -316.703125 L 409.84375 -293.3125 L 391.21875 -293.3125 C 388.039062 -293.3125 385.078125 -292.984375 382.328125 -292.328125 C 379.585938 -291.679688 377.207031 -290.347656 375.1875 -288.328125 C 373.164062 -286.304688 371.578125 -283.414062 370.421875 -279.65625 C 369.265625 -275.90625 368.6875 -270.851562 368.6875 -264.5 L 368.6875 -52.421875 C 368.6875 -46.066406 369.265625 -41.007812 370.421875 -37.25 C 371.578125 -33.5 373.164062 -30.613281 375.1875 -28.59375 C 377.207031 -26.570312 379.585938 -25.234375 382.328125 -24.578125 C 385.078125 -23.929688 388.039062 -23.609375 391.21875 -23.609375 L 409.84375 -23.609375 L 409.84375 0 Z M 267.953125 0 "/></g></g></g><path stroke-linecap="butt" transform="matrix(0.74999, 0.00380009, -0.00380009, 0.74999, 88.550617, 513.917515)" fill="none" stroke-linejoin="miter" d="M 16.544569 15.906566 C 58.178157 192.244764 312.509547 192.242579 779.533557 15.905246 " stroke="#ffffff" stroke-width="34" stroke-opacity="1" stroke-miterlimit="4"/></svg>